<?xml version="1.0" encoding="utf-8"?>
<!DOCTYPE svg PUBLIC "-//W3C//DTD SVG 1.1//EN" "http://www.w3.org/Graphics/SVG/1.1/DTD/svg11.dtd">
<svg version="1.1" id="Ebene_2" xmlns="http://www.w3.org/2000/svg" xmlns:xlink="http://www.w3.org/1999/xlink" x="0px" y="0px"
	 width="466.63px" height="60px" viewBox="0 0 466.63 60" style="enable-background:new 0 0 466.63 60;" xml:space="preserve">
<style type="text/css">
<![CDATA[
	.st0{fill:#FFFFFF;}
]]>
</style>
<g>
	<path class="st0" d="M4.04,46.38H0.3V22.14L0,14.82h3.92l0.12,7.63c0.32-1.48,0.79-2.74,1.4-3.8c0.61-1.06,1.31-1.92,2.1-2.6
		s1.67-1.17,2.65-1.49c0.98-0.32,2.05-0.49,3.2-0.51c0.58,0,1.09,0.01,1.52,0.05c0.43,0.03,0.79,0.09,1.07,0.17l0.03,3.51
		c-0.18-0.08-0.51-0.16-0.98-0.23c-0.47-0.07-1.09-0.11-1.85-0.11c-1.33,0-2.54,0.26-3.65,0.78s-2.06,1.28-2.85,2.26
		c-0.79,0.98-1.43,2.17-1.9,3.57S4.06,27,4.04,28.73V46.38z"/>
	<path class="st0" d="M31.1,14.06c1.45,0,2.75,0.16,3.91,0.48c1.16,0.32,2.21,0.77,3.17,1.35c0.96,0.58,1.83,1.3,2.62,2.14
		c0.79,0.84,1.55,1.79,2.28,2.86l0.15-6.06h3.62v7.5v24.05h-3.8l0.06-6.74c-0.28,0.84-0.77,1.7-1.48,2.57
		c-0.7,0.87-1.58,1.67-2.62,2.4c-1.05,0.73-2.25,1.32-3.6,1.78c-1.36,0.46-2.82,0.69-4.39,0.69c-2.55,0-4.75-0.51-6.59-1.52
		c-1.84-1.01-3.35-2.33-4.54-3.94c-1.19-1.61-2.06-3.41-2.62-5.41c-0.56-2-0.84-3.98-0.84-5.95c0-2.03,0.3-4.02,0.9-5.97
		c0.6-1.95,1.52-3.68,2.74-5.2s2.75-2.74,4.58-3.66S28.63,14.06,31.1,14.06z M43.19,30.23c-0.12-1.66-0.4-3.28-0.83-4.84
		c-0.43-1.57-1.1-2.97-2.01-4.2c-0.91-1.23-2.09-2.21-3.54-2.95c-1.46-0.74-3.27-1.11-5.44-1.11c-2.03,0-3.77,0.4-5.2,1.2
		c-1.44,0.8-2.62,1.84-3.54,3.12c-0.93,1.28-1.6,2.71-2.02,4.29c-0.42,1.58-0.63,3.15-0.63,4.71c0,1.56,0.16,3.14,0.48,4.75
		c0.32,1.61,0.91,3.07,1.76,4.38c0.85,1.31,2.04,2.39,3.56,3.23c1.52,0.84,3.47,1.26,5.87,1.26c1.61,0,3.12-0.27,4.52-0.8
		s2.63-1.34,3.67-2.43c1.04-1.09,1.85-2.45,2.46-4.09c0.6-1.64,0.9-3.56,0.9-5.75V30.23z"/>
	<path class="st0" d="M55.96,60h-3.74V22.79c0-0.57-0.01-1.52-0.03-2.84c-0.02-1.32-0.08-3.03-0.18-5.12h3.89l0.09,6.4
		c1.23-2.52,2.9-4.35,5.01-5.47s4.51-1.69,7.21-1.69c2.25,0,4.21,0.43,5.87,1.28c1.66,0.85,3.04,2,4.13,3.46
		c1.1,1.46,1.92,3.16,2.46,5.11c0.54,1.95,0.81,4.02,0.81,6.21c0,2.24-0.29,4.38-0.87,6.43c-0.58,2.05-1.45,3.86-2.61,5.41
		c-1.16,1.56-2.61,2.8-4.37,3.74c-1.76,0.93-3.82,1.4-6.17,1.4c-5.05,0-8.88-2.22-11.49-6.67V60z M55.93,31.19
		c0,1.85,0.24,3.55,0.72,5.12s1.19,2.93,2.11,4.09c0.92,1.16,2.07,2.06,3.42,2.71s2.9,0.97,4.63,0.97c1.89,0,3.51-0.37,4.86-1.12
		c1.35-0.75,2.45-1.75,3.32-3.01c0.86-1.26,1.5-2.72,1.92-4.37c0.41-1.65,0.62-3.39,0.62-5.21c0-1.7-0.18-3.35-0.54-4.94
		c-0.36-1.59-0.96-3-1.79-4.23c-0.83-1.23-1.93-2.21-3.27-2.95c-1.35-0.74-3-1.11-4.95-1.11c-2.07,0-3.81,0.39-5.22,1.17
		c-1.41,0.78-2.54,1.81-3.41,3.11c-0.86,1.29-1.48,2.78-1.85,4.47S55.93,29.34,55.93,31.19z"/>
	<path class="st0" d="M90.04,0v21.01c1.33-2.42,2.92-4.18,4.78-5.29c1.86-1.11,4.11-1.66,6.74-1.66c2.01,0,3.69,0.32,5.04,0.97
		c1.35,0.65,2.43,1.5,3.26,2.57c0.82,1.07,1.43,2.28,1.82,3.63c0.39,1.35,0.64,2.74,0.74,4.15l0.06,1.35v19.65h-3.74v-16.3
		c0-0.76-0.01-1.59-0.03-2.51c-0.02-0.91-0.03-1.38-0.03-1.4c-0.14-2.91-0.91-5.15-2.31-6.7c-1.4-1.56-3.48-2.34-6.26-2.34
		c-1.67,0-3.13,0.29-4.39,0.86c-1.26,0.57-2.31,1.36-3.15,2.37c-0.84,1-1.48,2.19-1.92,3.55c-0.43,1.36-0.64,2.83-0.62,4.38v18.08
		H86.3V0H90.04z"/>
	<path class="st0" d="M131.58,14.06c1.45,0,2.75,0.16,3.91,0.48c1.16,0.32,2.21,0.77,3.17,1.35c0.96,0.58,1.83,1.3,2.62,2.14
		c0.79,0.84,1.55,1.79,2.28,2.86l0.15-6.06h3.62v7.5v24.05h-3.8l0.06-6.74c-0.28,0.84-0.77,1.7-1.48,2.57
		c-0.7,0.87-1.58,1.67-2.62,2.4c-1.05,0.73-2.25,1.32-3.6,1.78c-1.36,0.46-2.82,0.69-4.39,0.69c-2.55,0-4.75-0.51-6.59-1.52
		c-1.84-1.01-3.35-2.33-4.54-3.94c-1.19-1.61-2.06-3.41-2.62-5.41c-0.56-2-0.84-3.98-0.84-5.95c0-2.03,0.3-4.02,0.9-5.97
		c0.6-1.95,1.52-3.68,2.74-5.2s2.75-2.74,4.58-3.66S129.1,14.06,131.58,14.06z M143.67,30.23c-0.12-1.66-0.4-3.28-0.83-4.84
		c-0.43-1.57-1.1-2.97-2.01-4.2c-0.91-1.23-2.09-2.21-3.54-2.95c-1.46-0.74-3.27-1.11-5.44-1.11c-2.03,0-3.77,0.4-5.2,1.2
		c-1.44,0.8-2.62,1.84-3.54,3.12c-0.93,1.28-1.6,2.71-2.02,4.29c-0.42,1.58-0.63,3.15-0.63,4.71c0,1.56,0.16,3.14,0.48,4.75
		c0.32,1.61,0.91,3.07,1.76,4.38c0.85,1.31,2.04,2.39,3.56,3.23c1.52,0.84,3.47,1.26,5.87,1.26c1.61,0,3.12-0.27,4.52-0.8
		s2.63-1.34,3.67-2.43c1.04-1.09,1.85-2.45,2.46-4.09c0.6-1.64,0.9-3.56,0.9-5.75V30.23z"/>
	<path class="st0" d="M177.61,40.17l1.09,2.95c-1.51,1.41-3.26,2.43-5.26,3.04c-2,0.61-4.26,0.92-6.77,0.92
		c-2.39,0-4.53-0.4-6.41-1.21c-1.88-0.81-3.47-1.94-4.77-3.38c-1.3-1.45-2.29-3.17-2.97-5.17s-1.03-4.19-1.03-6.57
		c0-2.28,0.34-4.43,1.03-6.46c0.68-2.03,1.67-3.8,2.96-5.32c1.29-1.52,2.86-2.72,4.72-3.6c1.86-0.88,3.97-1.32,6.32-1.32
		c2.33,0,4.36,0.4,6.08,1.2s3.14,1.91,4.25,3.34c1.12,1.42,1.95,3.13,2.49,5.12c0.54,1.99,0.81,4.18,0.81,6.58
		c0,0.16-0.01,0.34-0.02,0.54c-0.01,0.2-0.02,0.34-0.02,0.45h-24.67v0.58c0,1.83,0.27,3.49,0.8,4.98c0.53,1.5,1.3,2.78,2.31,3.84
		s2.22,1.9,3.65,2.49s3.05,0.89,4.86,0.89c2.25,0,4.27-0.34,6.06-1.01S176.4,41.42,177.61,40.17z M155.5,28.14h20.72v-0.06v0.21
		c-0.06-1.66-0.29-3.17-0.68-4.54s-0.98-2.54-1.76-3.52s-1.78-1.75-3-2.29c-1.22-0.54-2.68-0.82-4.39-0.82
		c-1.67,0-3.15,0.29-4.43,0.88c-1.29,0.58-2.38,1.38-3.29,2.38c-0.9,1-1.62,2.17-2.16,3.51C155.98,25.23,155.64,26.64,155.5,28.14z"
		/>
	<path class="st0" d="M188.62,0v46.38h-3.74V0H188.62z"/>
	<path class="st0" d="M201.07,54.78c0.54,0.1,1.02,0.18,1.43,0.23c0.41,0.05,0.78,0.08,1.1,0.08c1.95,0,3.41-0.77,4.37-2.32
		c0.96-1.55,1.45-3.99,1.45-7.33v-30.6h4.98v28.29c0.02,1.15-0.01,2.35-0.08,3.61s-0.22,2.5-0.44,3.72
		c-0.22,1.22-0.54,2.38-0.97,3.49c-0.42,1.11-0.99,2.08-1.7,2.91c-0.71,0.83-1.6,1.49-2.65,1.98s-2.32,0.74-3.79,0.74
		c-1.17,0-2.39-0.13-3.68-0.4L201.07,54.78z M214.01,1.42v4.77h-4.61V1.42H214.01z"/>
	<path class="st0" d="M234.65,14.06c1.27,0,2.42,0.12,3.47,0.35c1.04,0.24,2.01,0.57,2.89,1c0.88,0.43,1.7,0.96,2.44,1.6
		c0.74,0.64,1.44,1.35,2.08,2.15l0.18-4.34h4.92l-0.12,7.78v23.77h-4.98l0.06-4.43c-0.48,0.66-1.09,1.3-1.83,1.92
		c-0.73,0.63-1.56,1.17-2.49,1.65c-0.92,0.47-1.95,0.85-3.06,1.14c-1.12,0.29-2.29,0.43-3.51,0.43c-1.73,0-3.3-0.23-4.71-0.69
		c-1.41-0.46-2.67-1.1-3.77-1.91c-1.11-0.81-2.07-1.76-2.88-2.84c-0.81-1.09-1.48-2.25-2-3.51c-0.52-1.25-0.92-2.55-1.18-3.89
		c-0.26-1.34-0.39-2.67-0.39-3.98c0-2.03,0.31-4.02,0.92-5.97c0.61-1.95,1.54-3.68,2.77-5.2s2.79-2.74,4.65-3.66
		C229.98,14.52,232.15,14.06,234.65,14.06z M235.22,43.03c1.41,0,2.73-0.29,3.97-0.88c1.24-0.58,2.32-1.45,3.26-2.58
		c0.94-1.14,1.68-2.55,2.23-4.24c0.55-1.69,0.84-3.64,0.86-5.86c0-1.66-0.25-3.18-0.74-4.55c-0.49-1.37-1.19-2.56-2.1-3.57
		s-2.01-1.78-3.3-2.34s-2.75-0.83-4.36-0.83c-1.23,0-2.33,0.17-3.32,0.51c-0.99,0.34-1.86,0.81-2.62,1.4
		c-0.76,0.6-1.43,1.29-1.99,2.09s-1.03,1.66-1.39,2.57c-0.36,0.91-0.63,1.86-0.8,2.84c-0.17,0.98-0.26,1.96-0.26,2.92
		c0,0.94,0.07,1.91,0.2,2.91c0.13,0.99,0.35,1.95,0.65,2.88c0.3,0.92,0.71,1.79,1.24,2.61c0.52,0.82,1.17,1.53,1.95,2.14
		c0.77,0.6,1.7,1.09,2.78,1.45C232.54,42.85,233.79,43.03,235.22,43.03z"/>
	<path class="st0" d="M276.23,20.33c-1.08-0.76-2.39-1.31-3.92-1.65c-1.53-0.34-3.12-0.51-4.76-0.51c-0.93,0-1.78,0.1-2.56,0.31
		s-1.46,0.5-2.04,0.88c-0.57,0.38-1.02,0.84-1.36,1.38c-0.33,0.54-0.5,1.15-0.5,1.83c0,0.72,0.17,1.33,0.51,1.85
		c0.34,0.51,0.8,0.96,1.38,1.34c0.58,0.38,1.27,0.72,2.05,1.01c0.78,0.3,1.62,0.58,2.5,0.85c0.8,0.25,1.66,0.5,2.57,0.77
		c0.91,0.27,1.82,0.58,2.72,0.94c0.9,0.36,1.77,0.78,2.59,1.26c0.82,0.48,1.55,1.05,2.18,1.71c0.63,0.66,1.13,1.43,1.51,2.31
		c0.37,0.88,0.56,1.9,0.56,3.04c0,1.6-0.36,2.99-1.09,4.17c-0.72,1.18-1.68,2.16-2.87,2.94c-1.19,0.78-2.54,1.36-4.07,1.75
		s-3.1,0.58-4.7,0.58c-1.07,0-2.12-0.06-3.17-0.18c-1.05-0.12-2.05-0.33-3-0.61c-0.96-0.29-1.84-0.66-2.65-1.11s-1.51-1.02-2.1-1.69
		l1.34-4.15c0.54,0.66,1.18,1.22,1.9,1.69s1.5,0.86,2.34,1.15c0.84,0.3,1.7,0.51,2.58,0.65c0.89,0.13,1.75,0.2,2.6,0.2
		c1.13,0,2.16-0.11,3.11-0.32c0.95-0.22,1.77-0.53,2.46-0.95c0.69-0.42,1.24-0.94,1.63-1.57c0.39-0.62,0.59-1.35,0.59-2.17
		c0-0.94-0.22-1.71-0.66-2.29c-0.44-0.58-1.06-1.09-1.84-1.51c-0.79-0.42-1.72-0.79-2.81-1.11c-1.09-0.32-2.27-0.68-3.53-1.09
		c-1.51-0.49-2.88-1.01-4.09-1.55c-1.22-0.54-2.25-1.17-3.1-1.89c-0.85-0.72-1.5-1.55-1.95-2.51s-0.68-2.09-0.68-3.4
		c0-1.46,0.33-2.73,0.98-3.81c0.65-1.09,1.51-1.98,2.58-2.69s2.28-1.24,3.64-1.58c1.36-0.35,2.74-0.52,4.15-0.52
		c2.07,0,3.99,0.2,5.75,0.6c1.76,0.4,3.26,1.09,4.48,2.08L276.23,20.33z"/>
	<path class="st0" d="M277.46,54.78c0.54,0.1,1.02,0.18,1.43,0.23c0.41,0.05,0.78,0.08,1.1,0.08c1.95,0,3.41-0.77,4.37-2.32
		c0.97-1.55,1.45-3.99,1.45-7.33v-30.6h4.98v28.29c0.02,1.15-0.01,2.35-0.08,3.61s-0.22,2.5-0.44,3.72
		c-0.22,1.22-0.54,2.38-0.96,3.49c-0.42,1.11-0.99,2.08-1.7,2.91c-0.71,0.83-1.6,1.49-2.65,1.98c-1.06,0.49-2.32,0.74-3.79,0.74
		c-1.17,0-2.39-0.13-3.68-0.4L277.46,54.78z M290.4,1.42v4.77h-4.62V1.42H290.4z"/>
	<path class="st0" d="M319.97,14.82h4.98v23.99c0,1.35,0.02,2.63,0.04,3.83c0.03,1.2,0.1,2.44,0.2,3.74h-5.13l-0.09-4.15
		c-2.33,3.24-5.73,4.86-10.2,4.86c-1.53,0-2.88-0.18-4.04-0.54s-2.18-0.85-3.03-1.46c-0.86-0.62-1.57-1.34-2.14-2.18
		c-0.57-0.84-1.03-1.74-1.37-2.71s-0.59-1.96-0.74-3c-0.15-1.04-0.23-2.07-0.23-3.09V14.82h4.98v19.28
		c-0.02,2.93,0.59,5.15,1.84,6.66c1.25,1.51,3.21,2.26,5.88,2.26c1.45,0,2.73-0.27,3.85-0.8c1.12-0.53,2.06-1.26,2.84-2.18
		c0.77-0.92,1.36-1.99,1.76-3.21c0.4-1.22,0.6-2.51,0.6-3.86V14.82z"/>
	<path class="st0" d="M338.31,0.49v27.83l14.05-13.5h6.79l-15.98,14.89c2.83,2.77,5.69,5.55,8.56,8.33
		c2.88,2.79,5.73,5.57,8.57,8.33h-6.61l-15.38-15.41v15.41h-4.98V0.49H338.31z"/>
	<path class="st0" d="M375.93,14.06c1.27,0,2.42,0.12,3.47,0.35c1.04,0.24,2.01,0.57,2.9,1c0.88,0.43,1.7,0.96,2.44,1.6
		c0.74,0.64,1.44,1.35,2.08,2.15l0.18-4.34h4.92l-0.12,7.78v23.77h-4.98l0.06-4.43c-0.48,0.66-1.09,1.3-1.82,1.92
		c-0.73,0.63-1.56,1.17-2.49,1.65c-0.93,0.47-1.95,0.85-3.06,1.14c-1.12,0.29-2.29,0.43-3.51,0.43c-1.73,0-3.3-0.23-4.71-0.69
		c-1.41-0.46-2.66-1.1-3.77-1.91c-1.11-0.81-2.07-1.76-2.88-2.84s-1.48-2.25-2.01-3.51s-0.91-2.55-1.18-3.89s-0.39-2.67-0.39-3.98
		c0-2.03,0.31-4.02,0.92-5.97c0.61-1.95,1.54-3.68,2.78-5.2s2.79-2.74,4.64-3.66S373.44,14.06,375.93,14.06z M376.5,43.03
		c1.41,0,2.73-0.29,3.96-0.88c1.24-0.58,2.32-1.45,3.26-2.58c0.94-1.14,1.68-2.55,2.23-4.24s0.84-3.64,0.86-5.86
		c0-1.66-0.25-3.18-0.74-4.55c-0.49-1.37-1.19-2.56-2.1-3.57c-0.9-1-2-1.78-3.3-2.34s-2.75-0.83-4.36-0.83
		c-1.23,0-2.33,0.17-3.32,0.51c-0.98,0.34-1.86,0.81-2.62,1.4c-0.76,0.6-1.43,1.29-1.99,2.09c-0.56,0.8-1.03,1.66-1.39,2.57
		c-0.36,0.91-0.63,1.86-0.8,2.84c-0.17,0.98-0.26,1.96-0.26,2.92c0,0.94,0.06,1.91,0.2,2.91s0.35,1.95,0.65,2.88
		c0.3,0.92,0.71,1.79,1.24,2.61c0.52,0.82,1.17,1.53,1.95,2.14c0.78,0.6,1.7,1.09,2.78,1.45C373.82,42.85,375.08,43.03,376.5,43.03z
		"/>
	<path class="st0" d="M398.71,14.82h4.98v31.55h-4.98V14.82z M403.57,1.42v4.77h-4.62V1.42H403.57z"/>
	<path class="st0" d="M413.95,18.12h-6.12v-3.29h6.12l0.15-8.37l4.82-1.45v9.81h7.72v3.29h-7.72v18.85c0,0.7,0.02,1.41,0.06,2.14
		s0.18,1.39,0.41,2c0.23,0.6,0.59,1.1,1.07,1.48c0.48,0.38,1.17,0.57,2.05,0.57c0.64,0,1.32-0.09,2.02-0.26
		c0.7-0.17,1.48-0.42,2.32-0.72l-0.03,3.78c-0.7,0.41-1.47,0.7-2.29,0.88c-0.83,0.17-1.76,0.26-2.81,0.26
		c-1.69,0-3.04-0.29-4.06-0.88c-1.02-0.58-1.8-1.37-2.35-2.35c-0.55-0.98-0.92-2.13-1.1-3.45c-0.18-1.31-0.27-2.7-0.27-4.15V18.12z"
		/>
	<path class="st0" d="M431.42,14.82h4.98v31.55h-4.98V14.82z M436.28,1.42v4.77h-4.62V1.42H436.28z"/>
	<path class="st0" d="M463.18,20.33c-1.08-0.76-2.39-1.31-3.92-1.65c-1.53-0.34-3.12-0.51-4.76-0.51c-0.93,0-1.78,0.1-2.56,0.31
		s-1.46,0.5-2.04,0.88c-0.57,0.38-1.02,0.84-1.36,1.38c-0.33,0.54-0.5,1.15-0.5,1.83c0,0.72,0.17,1.33,0.51,1.85
		c0.34,0.51,0.8,0.96,1.38,1.34c0.58,0.38,1.27,0.72,2.05,1.01c0.78,0.3,1.62,0.58,2.5,0.85c0.8,0.25,1.66,0.5,2.57,0.77
		c0.91,0.27,1.82,0.58,2.72,0.94c0.9,0.36,1.77,0.78,2.59,1.26c0.82,0.48,1.55,1.05,2.18,1.71c0.63,0.66,1.13,1.43,1.51,2.31
		c0.37,0.88,0.56,1.9,0.56,3.04c0,1.6-0.36,2.99-1.09,4.17c-0.72,1.18-1.68,2.16-2.87,2.94c-1.19,0.78-2.54,1.36-4.07,1.75
		s-3.1,0.58-4.71,0.58c-1.07,0-2.12-0.06-3.17-0.18c-1.05-0.12-2.05-0.33-3-0.61c-0.96-0.29-1.84-0.66-2.65-1.11
		s-1.51-1.02-2.1-1.69l1.34-4.15c0.54,0.66,1.18,1.22,1.9,1.69s1.5,0.86,2.34,1.15c0.84,0.3,1.7,0.51,2.58,0.65
		c0.89,0.13,1.75,0.2,2.6,0.2c1.13,0,2.16-0.11,3.11-0.32c0.95-0.22,1.77-0.53,2.46-0.95c0.69-0.42,1.24-0.94,1.63-1.57
		c0.39-0.62,0.59-1.35,0.59-2.17c0-0.94-0.22-1.71-0.66-2.29c-0.44-0.58-1.06-1.09-1.84-1.51c-0.79-0.42-1.72-0.79-2.81-1.11
		c-1.09-0.32-2.27-0.68-3.54-1.09c-1.51-0.49-2.88-1.01-4.09-1.55c-1.22-0.54-2.25-1.17-3.1-1.89c-0.85-0.72-1.5-1.55-1.95-2.51
		s-0.68-2.09-0.68-3.4c0-1.46,0.33-2.73,0.98-3.81s1.52-1.98,2.58-2.69s2.28-1.24,3.64-1.58c1.36-0.35,2.74-0.52,4.15-0.52
		c2.07,0,3.99,0.2,5.75,0.6c1.76,0.4,3.26,1.09,4.48,2.08L463.18,20.33z"/>
</g>
</svg>
