<?xml version="1.0" encoding="utf-8"?>
<!DOCTYPE svg PUBLIC "-//W3C//DTD SVG 1.1//EN" "http://www.w3.org/Graphics/SVG/1.1/DTD/svg11.dtd">
<svg version="1.1" xmlns="http://www.w3.org/2000/svg" xmlns:xlink="http://www.w3.org/1999/xlink" x="0px" y="0px"
	 width="151px" height="24px" viewBox="3.8 -30.3 151 24" enable-background="new 3.8 -30.3 151 24" xml:space="preserve">
<g>
	<path fill="#FFFFFF" d="M6.4-13.1H5.2v-7.7l-0.1-2.3h1.3l0,2.4c0.1-0.5,0.3-0.9,0.5-1.2c0.2-0.3,0.4-0.6,0.7-0.8s0.5-0.4,0.9-0.5
		c0.3-0.1,0.7-0.2,1-0.2c0.2,0,0.4,0,0.5,0s0.3,0,0.3,0.1l0,1.1c-0.1,0-0.2-0.1-0.3-0.1c-0.2,0-0.4,0-0.6,0c-0.4,0-0.8,0.1-1.2,0.2
		s-0.7,0.4-0.9,0.7C7-21,6.8-20.7,6.7-20.2c-0.2,0.4-0.2,0.9-0.2,1.5V-13.1z"/>
	<path fill="#FFFFFF" d="M14.9-23.4c0.5,0,0.9,0.1,1.3,0.2c0.4,0.1,0.7,0.2,1,0.4c0.3,0.2,0.6,0.4,0.8,0.7c0.3,0.3,0.5,0.6,0.7,0.9
		l0-1.9H20v2.4v7.6h-1.2l0-2.1c-0.1,0.3-0.2,0.5-0.5,0.8s-0.5,0.5-0.8,0.8c-0.3,0.2-0.7,0.4-1.2,0.6s-0.9,0.2-1.4,0.2
		c-0.8,0-1.5-0.2-2.1-0.5s-1.1-0.7-1.5-1.2s-0.7-1.1-0.8-1.7s-0.3-1.3-0.3-1.9c0-0.6,0.1-1.3,0.3-1.9c0.2-0.6,0.5-1.2,0.9-1.7
		c0.4-0.5,0.9-0.9,1.5-1.2S14.1-23.4,14.9-23.4z M18.8-18.3c0-0.5-0.1-1-0.3-1.5s-0.4-0.9-0.6-1.3c-0.3-0.4-0.7-0.7-1.1-0.9
		s-1.1-0.4-1.8-0.4c-0.7,0-1.2,0.1-1.7,0.4c-0.5,0.3-0.8,0.6-1.1,1c-0.3,0.4-0.5,0.9-0.7,1.4s-0.2,1-0.2,1.5s0.1,1,0.2,1.5
		s0.3,1,0.6,1.4c0.3,0.4,0.7,0.8,1.1,1c0.5,0.3,1.1,0.4,1.9,0.4c0.5,0,1-0.1,1.5-0.3c0.5-0.2,0.8-0.4,1.2-0.8
		c0.3-0.3,0.6-0.8,0.8-1.3c0.2-0.5,0.3-1.1,0.3-1.8V-18.3z"/>
	<path fill="#FFFFFF" d="M22.7-8.8h-1.2v-11.8c0-0.2,0-0.5,0-0.9s0-1-0.1-1.6h1.3l0,2c0.4-0.8,0.9-1.4,1.6-1.7
		c0.7-0.4,1.5-0.5,2.3-0.5c0.7,0,1.4,0.1,1.9,0.4c0.5,0.3,1,0.6,1.3,1.1s0.6,1,0.8,1.6s0.3,1.3,0.3,2c0,0.7-0.1,1.4-0.3,2
		c-0.2,0.7-0.5,1.2-0.8,1.7s-0.8,0.9-1.4,1.2c-0.6,0.3-1.2,0.4-2,0.4c-1.6,0-2.9-0.7-3.7-2.1V-8.8z M22.7-18c0,0.6,0.1,1.1,0.2,1.6
		s0.4,0.9,0.7,1.3c0.3,0.4,0.7,0.7,1.1,0.9c0.4,0.2,0.9,0.3,1.5,0.3c0.6,0,1.1-0.1,1.6-0.4s0.8-0.6,1.1-1s0.5-0.9,0.6-1.4
		c0.1-0.5,0.2-1.1,0.2-1.7c0-0.5-0.1-1.1-0.2-1.6s-0.3-1-0.6-1.3s-0.6-0.7-1.1-0.9s-1-0.4-1.6-0.4c-0.7,0-1.2,0.1-1.7,0.4
		c-0.5,0.2-0.8,0.6-1.1,1s-0.5,0.9-0.6,1.4C22.8-19.1,22.7-18.5,22.7-18z"/>
	<path fill="#FFFFFF" d="M33.5-27.9v6.7c0.4-0.8,0.9-1.3,1.5-1.7s1.3-0.5,2.2-0.5c0.6,0,1.2,0.1,1.6,0.3s0.8,0.5,1,0.8
		s0.5,0.7,0.6,1.2c0.1,0.4,0.2,0.9,0.2,1.3l0,0.4v6.2h-1.2v-5.2c0-0.2,0-0.5,0-0.8c0-0.3,0-0.4,0-0.4c0-0.9-0.3-1.6-0.7-2.1
		s-1.1-0.7-2-0.7c-0.5,0-1,0.1-1.4,0.3c-0.4,0.2-0.7,0.4-1,0.8c-0.3,0.3-0.5,0.7-0.6,1.1s-0.2,0.9-0.2,1.4v5.7h-1.2v-14.7H33.5z"/>
	<path fill="#FFFFFF" d="M46.7-23.4c0.5,0,0.9,0.1,1.3,0.2c0.4,0.1,0.7,0.2,1,0.4c0.3,0.2,0.6,0.4,0.8,0.7c0.3,0.3,0.5,0.6,0.7,0.9
		l0-1.9h1.2v2.4v7.6h-1.2l0-2.1c-0.1,0.3-0.2,0.5-0.5,0.8s-0.5,0.5-0.8,0.8c-0.3,0.2-0.7,0.4-1.2,0.6s-0.9,0.2-1.4,0.2
		c-0.8,0-1.5-0.2-2.1-0.5s-1.1-0.7-1.5-1.2s-0.7-1.1-0.8-1.7S42-17.6,42-18.3c0-0.6,0.1-1.3,0.3-1.9c0.2-0.6,0.5-1.2,0.9-1.7
		c0.4-0.5,0.9-0.9,1.5-1.2S45.9-23.4,46.7-23.4z M50.6-18.3c0-0.5-0.1-1-0.3-1.5s-0.4-0.9-0.6-1.3c-0.3-0.4-0.7-0.7-1.1-0.9
		s-1.1-0.4-1.8-0.4c-0.7,0-1.2,0.1-1.7,0.4c-0.5,0.3-0.8,0.6-1.1,1c-0.3,0.4-0.5,0.9-0.7,1.4s-0.2,1-0.2,1.5s0.1,1,0.2,1.5
		s0.3,1,0.6,1.4c0.3,0.4,0.7,0.8,1.1,1c0.5,0.3,1.1,0.4,1.9,0.4c0.5,0,1-0.1,1.5-0.3c0.5-0.2,0.8-0.4,1.2-0.8
		c0.3-0.3,0.6-0.8,0.8-1.3c0.2-0.5,0.3-1.1,0.3-1.8V-18.3z"/>
	<path fill="#FFFFFF" d="M61.3-15.1l0.3,0.9c-0.5,0.4-1,0.8-1.7,1s-1.4,0.3-2.2,0.3c-0.8,0-1.5-0.1-2.1-0.4
		c-0.6-0.3-1.1-0.6-1.5-1.1s-0.7-1-1-1.6c-0.2-0.6-0.3-1.3-0.3-2.1c0-0.7,0.1-1.4,0.3-2.1c0.2-0.6,0.5-1.2,1-1.7s0.9-0.9,1.5-1.1
		s1.3-0.4,2-0.4c0.8,0,1.4,0.1,2,0.4c0.6,0.3,1,0.6,1.4,1.1c0.4,0.5,0.6,1,0.8,1.6c0.2,0.6,0.3,1.3,0.3,2.1c0,0.1,0,0.1,0,0.2
		c0,0.1,0,0.1,0,0.1h-7.9v0.2c0,0.6,0.1,1.1,0.3,1.6c0.2,0.5,0.4,0.9,0.7,1.2c0.3,0.3,0.7,0.6,1.2,0.8s1,0.3,1.6,0.3
		c0.7,0,1.4-0.1,2-0.3C60.4-14.4,60.9-14.7,61.3-15.1z M54.2-18.9h6.7v0v0.1c0-0.5-0.1-1-0.2-1.4c-0.1-0.4-0.3-0.8-0.6-1.1
		s-0.6-0.6-1-0.7c-0.4-0.2-0.9-0.3-1.4-0.3c-0.5,0-1,0.1-1.4,0.3s-0.8,0.4-1.1,0.8s-0.5,0.7-0.7,1.1C54.3-19.9,54.2-19.4,54.2-18.9z
		"/>
	<path fill="#FFFFFF" d="M64.6-27.9v14.7h-1.2v-14.7H64.6z"/>
	<path fill="#FFFFFF" stroke="#FFFFFF" stroke-width="0.75" stroke-miterlimit="10" d="M68.4-10.5c0.2,0,0.3,0.1,0.5,0.1
		s0.3,0,0.4,0c0.6,0,1.1-0.2,1.4-0.7s0.5-1.3,0.5-2.3v-9.7h1.6v9c0,0.4,0,0.7,0,1.1s-0.1,0.8-0.1,1.2s-0.2,0.8-0.3,1.1
		s-0.3,0.7-0.6,0.9s-0.5,0.5-0.9,0.6s-0.8,0.2-1.2,0.2c-0.4,0-0.8,0-1.2-0.1L68.4-10.5z M72.6-27.4v1.5h-1.5v-1.5H72.6z"/>
	<path fill="#FFFFFF" stroke="#FFFFFF" stroke-width="0.75" stroke-miterlimit="10" d="M79.2-23.4c0.4,0,0.8,0,1.1,0.1
		s0.7,0.2,0.9,0.3s0.6,0.3,0.8,0.5s0.5,0.4,0.7,0.7l0.1-1.4h1.6l0,2.5v7.5h-1.6l0-1.4c-0.2,0.2-0.4,0.4-0.6,0.6s-0.5,0.4-0.8,0.5
		s-0.6,0.3-1,0.4s-0.7,0.1-1.1,0.1c-0.6,0-1.1-0.1-1.5-0.2s-0.9-0.3-1.2-0.6s-0.7-0.6-0.9-0.9s-0.5-0.7-0.6-1.1s-0.3-0.8-0.4-1.2
		s-0.1-0.8-0.1-1.3c0-0.6,0.1-1.3,0.3-1.9s0.5-1.2,0.9-1.7s0.9-0.9,1.5-1.2S78.4-23.4,79.2-23.4z M79.4-14.2c0.5,0,0.9-0.1,1.3-0.3
		s0.8-0.5,1.1-0.8s0.5-0.8,0.7-1.3s0.3-1.2,0.3-1.9c0-0.5-0.1-1-0.2-1.4s-0.4-0.8-0.7-1.1s-0.6-0.6-1.1-0.7s-0.9-0.3-1.4-0.3
		c-0.4,0-0.8,0.1-1.1,0.2s-0.6,0.3-0.8,0.4s-0.5,0.4-0.6,0.7s-0.3,0.5-0.4,0.8s-0.2,0.6-0.3,0.9S76-18.5,76-18.2
		c0,0.3,0,0.6,0.1,0.9s0.1,0.6,0.2,0.9s0.2,0.6,0.4,0.8s0.4,0.5,0.6,0.7s0.6,0.3,0.9,0.5S79-14.2,79.4-14.2z"/>
	<path fill="#FFFFFF" stroke="#FFFFFF" stroke-width="0.75" stroke-miterlimit="10" d="M92.6-21.4c-0.4-0.2-0.8-0.4-1.3-0.5
		s-1-0.2-1.5-0.2c-0.3,0-0.6,0-0.8,0.1s-0.5,0.2-0.7,0.3s-0.3,0.3-0.4,0.4s-0.2,0.4-0.2,0.6c0,0.2,0.1,0.4,0.2,0.6
		c0.1,0.2,0.3,0.3,0.4,0.4s0.4,0.2,0.7,0.3c0.3,0.1,0.5,0.2,0.8,0.3c0.3,0.1,0.5,0.2,0.8,0.2c0.3,0.1,0.6,0.2,0.9,0.3
		s0.6,0.2,0.8,0.4c0.3,0.2,0.5,0.3,0.7,0.5c0.2,0.2,0.4,0.5,0.5,0.7c0.1,0.3,0.2,0.6,0.2,1c0,0.5-0.1,0.9-0.4,1.3s-0.5,0.7-0.9,0.9
		s-0.8,0.4-1.3,0.6s-1,0.2-1.5,0.2c-0.3,0-0.7,0-1-0.1s-0.7-0.1-1-0.2s-0.6-0.2-0.9-0.4s-0.5-0.3-0.7-0.5l0.4-1.3
		c0.2,0.2,0.4,0.4,0.6,0.5c0.2,0.1,0.5,0.3,0.8,0.4s0.5,0.2,0.8,0.2c0.3,0,0.6,0.1,0.8,0.1c0.4,0,0.7,0,1-0.1
		c0.3-0.1,0.6-0.2,0.8-0.3c0.2-0.1,0.4-0.3,0.5-0.5c0.1-0.2,0.2-0.4,0.2-0.7c0-0.3-0.1-0.5-0.2-0.7s-0.3-0.3-0.6-0.5
		s-0.6-0.3-0.9-0.4s-0.7-0.2-1.1-0.3c-0.5-0.2-0.9-0.3-1.3-0.5s-0.7-0.4-1-0.6c-0.3-0.2-0.5-0.5-0.6-0.8c-0.1-0.3-0.2-0.7-0.2-1.1
		c0-0.5,0.1-0.9,0.3-1.2c0.2-0.3,0.5-0.6,0.8-0.9c0.3-0.2,0.7-0.4,1.2-0.5s0.9-0.2,1.3-0.2c0.7,0,1.3,0.1,1.9,0.2s1.1,0.3,1.5,0.7
		L92.6-21.4z"/>
	<path fill="#FFFFFF" stroke="#FFFFFF" stroke-width="0.75" stroke-miterlimit="10" d="M92.9-10.5c0.2,0,0.3,0.1,0.5,0.1
		s0.3,0,0.4,0c0.6,0,1.1-0.2,1.4-0.7s0.5-1.3,0.5-2.3v-9.7h1.6v9c0,0.4,0,0.7,0,1.1s-0.1,0.8-0.1,1.2s-0.2,0.8-0.3,1.1
		s-0.3,0.7-0.6,0.9s-0.5,0.5-0.9,0.6s-0.8,0.2-1.2,0.2c-0.4,0-0.8,0-1.2-0.1L92.9-10.5z M97.1-27.4v1.5h-1.5v-1.5H97.1z"/>
	<path fill="#FFFFFF" stroke="#FFFFFF" stroke-width="0.75" stroke-miterlimit="10" d="M106.6-23.2h1.6v7.6c0,0.4,0,0.8,0,1.2
		s0,0.8,0.1,1.2h-1.7l0-1.3c-0.8,1-1.9,1.5-3.3,1.5c-0.5,0-0.9-0.1-1.3-0.2s-0.7-0.3-1-0.5s-0.5-0.4-0.7-0.7s-0.3-0.6-0.4-0.9
		s-0.2-0.6-0.2-1s-0.1-0.7-0.1-1v-6.1h1.6v6.1c0,0.9,0.2,1.6,0.6,2.1s1,0.7,1.9,0.7c0.5,0,0.9-0.1,1.2-0.3s0.7-0.4,0.9-0.7
		s0.4-0.6,0.6-1s0.2-0.8,0.2-1.2V-23.2z"/>
	<path fill="#FFFFFF" stroke="#FFFFFF" stroke-width="0.75" stroke-miterlimit="10" d="M112.5-27.7v8.8l4.6-4.3h2.2l-5.2,4.7
		c0.9,0.9,1.8,1.8,2.8,2.6s1.9,1.8,2.8,2.6h-2.1l-5-4.9v4.9h-1.6v-14.6H112.5z"/>
	<path fill="#FFFFFF" stroke="#FFFFFF" stroke-width="0.75" stroke-miterlimit="10" d="M124.6-23.4c0.4,0,0.8,0,1.1,0.1
		s0.7,0.2,0.9,0.3s0.6,0.3,0.8,0.5s0.5,0.4,0.7,0.7l0.1-1.4h1.6l0,2.5v7.5h-1.6l0-1.4c-0.2,0.2-0.4,0.4-0.6,0.6s-0.5,0.4-0.8,0.5
		s-0.6,0.3-1,0.4s-0.7,0.1-1.1,0.1c-0.6,0-1.1-0.1-1.5-0.2s-0.9-0.3-1.2-0.6s-0.7-0.6-0.9-0.9s-0.5-0.7-0.6-1.1s-0.3-0.8-0.4-1.2
		s-0.1-0.8-0.1-1.3c0-0.6,0.1-1.3,0.3-1.9s0.5-1.2,0.9-1.7s0.9-0.9,1.5-1.2S123.8-23.4,124.6-23.4z M124.8-14.2
		c0.5,0,0.9-0.1,1.3-0.3s0.8-0.5,1.1-0.8s0.5-0.8,0.7-1.3s0.3-1.2,0.3-1.9c0-0.5-0.1-1-0.2-1.4s-0.4-0.8-0.7-1.1s-0.6-0.6-1.1-0.7
		s-0.9-0.3-1.4-0.3c-0.4,0-0.8,0.1-1.1,0.2s-0.6,0.3-0.8,0.4s-0.5,0.4-0.6,0.7s-0.3,0.5-0.4,0.8s-0.2,0.6-0.3,0.9s-0.1,0.6-0.1,0.9
		c0,0.3,0,0.6,0.1,0.9s0.1,0.6,0.2,0.9s0.2,0.6,0.4,0.8s0.4,0.5,0.6,0.7s0.6,0.3,0.9,0.5S124.3-14.2,124.8-14.2z"/>
	<path fill="#FFFFFF" stroke="#FFFFFF" stroke-width="0.75" stroke-miterlimit="10" d="M131.9-23.2h1.6v10h-1.6V-23.2z M133.5-27.4
		v1.5H132v-1.5H133.5z"/>
	<path fill="#FFFFFF" stroke="#FFFFFF" stroke-width="0.75" stroke-miterlimit="10" d="M136.7-22.1h-2v-1h2l0-2.7l1.6-0.5v3.1h2.5v1
		h-2.5v6c0,0.2,0,0.4,0,0.7s0.1,0.4,0.1,0.6s0.2,0.3,0.3,0.5s0.4,0.2,0.7,0.2c0.2,0,0.4,0,0.7-0.1s0.5-0.1,0.8-0.2l0,1.2
		c-0.2,0.1-0.5,0.2-0.7,0.3s-0.6,0.1-0.9,0.1c-0.5,0-1-0.1-1.3-0.3s-0.6-0.4-0.8-0.7s-0.3-0.7-0.4-1.1s-0.1-0.9-0.1-1.3V-22.1z"/>
	<path fill="#FFFFFF" stroke="#FFFFFF" stroke-width="0.75" stroke-miterlimit="10" d="M142.3-23.2h1.6v10h-1.6V-23.2z M143.9-27.4
		v1.5h-1.5v-1.5H143.9z"/>
	<path fill="#FFFFFF" stroke="#FFFFFF" stroke-width="0.75" stroke-miterlimit="10" d="M152.5-21.4c-0.4-0.2-0.8-0.4-1.3-0.5
		s-1-0.2-1.5-0.2c-0.3,0-0.6,0-0.8,0.1s-0.5,0.2-0.7,0.3s-0.3,0.3-0.4,0.4s-0.2,0.4-0.2,0.6c0,0.2,0.1,0.4,0.2,0.6
		c0.1,0.2,0.3,0.3,0.4,0.4s0.4,0.2,0.7,0.3c0.3,0.1,0.5,0.2,0.8,0.3c0.3,0.1,0.5,0.2,0.8,0.2c0.3,0.1,0.6,0.2,0.9,0.3
		s0.6,0.2,0.8,0.4c0.3,0.2,0.5,0.3,0.7,0.5c0.2,0.2,0.4,0.5,0.5,0.7c0.1,0.3,0.2,0.6,0.2,1c0,0.5-0.1,0.9-0.4,1.3s-0.5,0.7-0.9,0.9
		s-0.8,0.4-1.3,0.6s-1,0.2-1.5,0.2c-0.3,0-0.7,0-1-0.1s-0.7-0.1-1-0.2s-0.6-0.2-0.9-0.4s-0.5-0.3-0.7-0.5l0.4-1.3
		c0.2,0.2,0.4,0.4,0.6,0.5c0.2,0.1,0.5,0.3,0.8,0.4s0.5,0.2,0.8,0.2c0.3,0,0.6,0.1,0.8,0.1c0.4,0,0.7,0,1-0.1
		c0.3-0.1,0.6-0.2,0.8-0.3c0.2-0.1,0.4-0.3,0.5-0.5c0.1-0.2,0.2-0.4,0.2-0.7c0-0.3-0.1-0.5-0.2-0.7s-0.3-0.3-0.6-0.5
		s-0.6-0.3-0.9-0.4s-0.7-0.2-1.1-0.3c-0.5-0.2-0.9-0.3-1.3-0.5s-0.7-0.4-1-0.6c-0.3-0.2-0.5-0.5-0.6-0.8c-0.1-0.3-0.2-0.7-0.2-1.1
		c0-0.5,0.1-0.9,0.3-1.2c0.2-0.3,0.5-0.6,0.8-0.9c0.3-0.2,0.7-0.4,1.2-0.5s0.9-0.2,1.3-0.2c0.7,0,1.3,0.1,1.9,0.2s1.1,0.3,1.5,0.7
		L152.5-21.4z"/>
</g>
</svg>
